<svg xmlns="http://www.w3.org/2000/svg" xmlns:xlink="http://www.w3.org/1999/xlink" preserveAspectRatio="xMidYMid" width="18" height="18" viewBox="0 0 18 18">
  <defs>
    <style>
      .cls-1 {
        fill: #00d4bb;
        fill-rule: evenodd;
      }
    </style>
  </defs>
  <path d="M16.380,15.536 C16.131,16.928 14.942,17.965 13.552,17.999 L13.548,18.000 L4.439,18.000 C3.050,17.977 1.859,16.949 1.609,15.558 L-0.002,6.593 C-0.035,6.384 0.028,6.170 0.169,6.016 C0.327,5.791 0.588,5.791 0.732,5.791 L5.038,5.791 L5.038,4.029 C5.051,2.965 5.462,1.966 6.195,1.213 C6.947,0.440 7.949,0.011 9.017,0.006 C10.086,-0.001 11.092,0.419 11.851,1.184 L11.855,1.189 C12.574,1.945 12.973,2.981 12.951,4.033 L12.951,5.791 L17.257,5.791 C17.401,5.791 17.663,5.791 17.821,6.019 C17.966,6.181 18.028,6.403 17.989,6.621 L16.380,15.536 ZM10.762,2.229 C10.301,1.761 9.689,1.502 9.038,1.502 C9.037,1.502 9.037,1.502 9.037,1.502 C7.666,1.502 6.534,2.637 6.513,4.031 L6.513,5.791 L11.476,5.791 L11.476,4.025 C11.476,4.011 11.477,3.998 11.477,3.985 C11.477,3.322 11.223,2.699 10.762,2.229 ZM1.617,7.293 L3.074,15.313 C3.192,15.994 3.770,16.492 4.447,16.498 L13.544,16.498 C14.219,16.492 14.796,15.994 14.915,15.315 L14.915,15.313 L16.372,7.293 L1.617,7.293 ZM12.321,11.553 C11.914,11.553 11.584,11.217 11.584,10.803 L11.584,9.492 C11.584,9.078 11.914,8.741 12.321,8.741 C12.728,8.741 13.058,9.078 13.058,9.492 L13.058,10.803 C13.058,11.217 12.728,11.553 12.321,11.553 ZM5.882,11.553 C5.476,11.553 5.145,11.217 5.145,10.803 L5.145,9.492 C5.145,9.078 5.476,8.741 5.882,8.741 C6.289,8.741 6.620,9.078 6.620,9.492 L6.620,10.803 C6.620,11.217 6.289,11.553 5.882,11.553 Z" class="cls-1"/>
</svg>
