<svg xmlns="http://www.w3.org/2000/svg" xmlns:xlink="http://www.w3.org/1999/xlink" preserveAspectRatio="xMidYMid" width="18" height="18" viewBox="0 0 18 18">
  <defs>
    <style>
      .cls-1 {
        fill: #a9b6be;
        fill-rule: evenodd;
      }
    </style>
  </defs>
  <path d="M17.425,9.491 L16.362,9.491 C16.127,10.682 15.061,11.582 13.781,11.582 C12.500,11.582 11.433,10.682 11.199,9.491 L0.575,9.491 C0.259,9.491 -0.000,9.237 -0.000,8.926 C-0.000,8.616 0.259,8.362 0.575,8.362 L11.232,8.362 C11.520,7.243 12.552,6.416 13.781,6.416 C15.009,6.416 16.041,7.243 16.329,8.362 L17.425,8.362 C17.741,8.362 18.000,8.616 18.000,8.926 C18.000,9.237 17.741,9.491 17.425,9.491 ZM17.425,3.074 L6.018,3.074 C5.784,4.266 4.717,5.166 3.437,5.166 C2.156,5.166 1.089,4.266 0.855,3.074 L0.575,3.074 C0.259,3.074 -0.000,2.821 -0.000,2.510 C-0.000,2.199 0.259,1.945 0.575,1.945 L0.888,1.945 C1.176,0.827 2.208,-0.001 3.437,-0.001 C4.665,-0.001 5.697,0.827 5.985,1.945 L17.425,1.945 C17.741,1.945 18.000,2.199 18.000,2.510 C18.000,2.821 17.741,3.074 17.425,3.074 ZM0.575,14.778 L4.826,14.778 C5.115,13.659 6.146,12.832 7.375,12.832 C8.603,12.832 9.635,13.659 9.924,14.778 L17.425,14.778 C17.741,14.778 18.000,15.032 18.000,15.343 C18.000,15.654 17.741,15.908 17.425,15.908 L9.956,15.908 C9.722,17.099 8.656,17.999 7.375,17.999 C6.094,17.999 5.028,17.099 4.794,15.908 L0.575,15.908 C0.259,15.908 -0.000,15.654 -0.000,15.343 C-0.000,15.032 0.259,14.778 0.575,14.778 Z" class="cls-1"/>
</svg>
