<svg xmlns="http://www.w3.org/2000/svg" width="14" height="16" viewBox="0 0 14 16">
  <defs>
    <style>
      .cls-1 {
        fill: #c9d1d5;
        fill-rule: evenodd;
      }
    </style>
  </defs>
  <path id="Forma_1_copy" data-name="Forma 1 copy" class="cls-1" d="M546.562,527.187a0.625,0.625,0,1,1-.625.625A0.625,0.625,0,0,1,546.562,527.187Zm2.813,1.125a0.625,0.625,0,0,0,.625-0.625v-2.312a2.5,2.5,0,0,0-2.5-2.5h-0.751v-2.2a3.751,3.751,0,0,0-7.5,0v2.2H538.5a2.5,2.5,0,0,0-2.5,2.5V530.5a2.5,2.5,0,0,0,2.5,2.5h9a2.5,2.5,0,0,0,2.5-2.5,0.625,0.625,0,0,0-1.25,0,1.252,1.252,0,0,1-1.25,1.25h-9a1.252,1.252,0,0,1-1.25-1.25v-5.125a1.251,1.251,0,0,1,1.25-1.25h9a1.251,1.251,0,0,1,1.25,1.25v2.312A0.625,0.625,0,0,0,549.375,528.312Zm-3.876-5.437h-5v-2.2a2.5,2.5,0,0,1,5,0v2.2Zm-3.656,4.312a0.625,0.625,0,1,1-.625.625A0.625,0.625,0,0,1,541.843,527.187Zm-2.343,0a0.625,0.625,0,1,1-.625.625A0.625,0.625,0,0,1,539.5,527.187Zm4.687,0a0.625,0.625,0,1,1-.625.625A0.625,0.625,0,0,1,544.187,527.187Z" transform="translate(-536 -517)"/>
</svg>
