<svg xmlns="http://www.w3.org/2000/svg" width="16" height="12" viewBox="0 0 16 12">
  <defs>
    <style>
      .cls-1 {
        fill: #c9d1d5;
        fill-rule: evenodd;
      }
    </style>
  </defs>
  <path class="cls-1" d="M549.046,458h-12.09A1.944,1.944,0,0,0,535,459.928v8.144A1.944,1.944,0,0,0,536.956,470h12.087A1.945,1.945,0,0,0,551,468.072v-8.141A1.942,1.942,0,0,0,549.046,458Zm0.887,10a1.021,1.021,0,0,1-1.066,1H537.133a1.021,1.021,0,0,1-1.066-1v-8a1.02,1.02,0,0,1,1.066-1h11.734a1.02,1.02,0,0,1,1.066,1v8h0Zm-4.843-4.1L549,460.44a0.438,0.438,0,0,0,.033-0.623,0.453,0.453,0,0,0-.632-0.032l-5.4,4.773-1.053-.927a0.015,0.015,0,0,1-.006-0.01c-0.024-.022-0.047-0.042-0.073-0.062l-4.284-3.778a0.451,0.451,0,0,0-.632.036,0.435,0.435,0,0,0,.036.623l3.959,3.488-3.942,3.638a0.437,0.437,0,0,0-.02.623,0.46,0.46,0,0,0,.327.14,0.452,0.452,0,0,0,.3-0.117l4-3.69,1.085,0.956a0.451,0.451,0,0,0,.6,0l1.116-.986,3.979,3.726a0.452,0.452,0,0,0,.632-0.016,0.437,0.437,0,0,0-.016-0.623Z" transform="translate(-535 -458)"/>
</svg>
