<svg xmlns="http://www.w3.org/2000/svg" xmlns:xlink="http://www.w3.org/1999/xlink" preserveAspectRatio="xMidYMid" width="16" height="17.94" viewBox="0 0 16 17.94">
  <defs>
    <style>
      .cls-1 {
        fill: #a9b6be;
        fill-rule: evenodd;
      }
    </style>
  </defs>
  <path d="M15.532,8.203 C15.267,8.615 15.274,9.163 15.542,9.568 L15.789,9.940 C16.167,10.510 16.007,11.313 15.448,11.651 L15.083,11.876 C14.685,12.119 14.471,12.616 14.554,13.109 L14.632,13.562 C14.749,14.254 14.287,14.902 13.648,14.942 L13.230,14.968 C12.775,14.994 12.386,15.340 12.266,15.826 L12.156,16.271 C11.985,16.948 11.316,17.313 10.724,17.044 L10.335,16.868 C9.914,16.676 9.429,16.802 9.127,17.180 L8.853,17.526 C8.435,18.060 7.689,18.064 7.260,17.541 L6.983,17.199 C6.678,16.823 6.190,16.706 5.771,16.904 L5.387,17.085 C4.798,17.365 4.122,17.015 3.945,16.337 L3.828,15.896 C3.700,15.413 3.306,15.075 2.850,15.053 L2.432,15.035 C1.793,15.005 1.321,14.364 1.428,13.672 L1.499,13.220 C1.576,12.723 1.355,12.230 0.953,11.994 L0.585,11.777 C0.020,11.441 -0.151,10.643 0.217,10.068 L0.458,9.693 C0.723,9.281 0.716,8.733 0.448,8.327 L0.201,7.956 C-0.177,7.389 -0.017,6.586 0.542,6.244 L0.906,6.019 C1.305,5.776 1.519,5.280 1.435,4.786 L1.358,4.333 C1.241,3.641 1.703,2.994 2.342,2.953 L2.760,2.928 C3.215,2.902 3.603,2.555 3.724,2.070 L3.834,1.624 C4.005,0.947 4.674,0.582 5.266,0.851 L5.655,1.028 C6.076,1.219 6.561,1.094 6.862,0.715 L7.137,0.369 C7.558,-0.164 8.304,-0.168 8.729,0.354 L9.007,0.696 C9.311,1.072 9.800,1.190 10.218,0.991 L10.603,0.811 C11.192,0.531 11.868,0.881 12.045,1.558 L12.162,2.000 C12.289,2.482 12.684,2.821 13.139,2.843 L13.557,2.862 C14.197,2.890 14.668,3.531 14.561,4.223 L14.491,4.675 C14.414,5.173 14.635,5.666 15.037,5.902 L15.404,6.119 C15.970,6.454 16.141,7.252 15.772,7.827 L15.532,8.203 ZM5.822,5.611 C4.912,5.611 4.175,6.421 4.175,7.422 C4.175,8.419 4.912,9.233 5.822,9.233 C6.732,9.233 7.468,8.423 7.468,7.422 C7.468,6.421 6.732,5.611 5.822,5.611 ZM10.406,5.747 C10.235,5.593 9.981,5.619 9.840,5.806 L5.521,11.530 C5.380,11.718 5.404,11.998 5.574,12.152 C5.745,12.307 5.999,12.281 6.140,12.094 L10.459,6.369 C10.600,6.181 10.576,5.902 10.406,5.747 ZM10.161,8.659 C9.251,8.659 8.515,9.468 8.515,10.470 C8.515,11.471 9.251,12.281 10.161,12.281 C11.071,12.281 11.808,11.471 11.808,10.470 C11.808,9.468 11.071,8.659 10.161,8.659 ZM10.161,11.221 C9.784,11.221 9.479,10.885 9.479,10.470 C9.479,10.055 9.784,9.719 10.161,9.719 C10.538,9.719 10.844,10.055 10.844,10.470 C10.844,10.885 10.538,11.221 10.161,11.221 ZM5.825,8.173 C5.448,8.173 5.143,7.836 5.143,7.422 C5.143,7.007 5.448,6.671 5.825,6.671 C6.202,6.671 6.508,7.007 6.508,7.422 C6.508,7.836 6.202,8.173 5.825,8.173 Z" class="cls-1"/>
</svg>
