<svg xmlns="http://www.w3.org/2000/svg" xmlns:xlink="http://www.w3.org/1999/xlink" preserveAspectRatio="xMidYMid" width="16" height="16" viewBox="0 0 16 16">
  <defs>
    <style>
      .cls-1 {
        fill: #5f88a3;
        fill-rule: evenodd;
      }
    </style>
  </defs>
  <path d="M15.646,13.900 L12.348,10.602 C13.142,9.455 13.540,8.175 13.540,6.765 C13.540,5.848 13.362,4.971 13.006,4.137 C12.650,3.299 12.170,2.577 11.564,1.971 C10.958,1.366 10.237,0.885 9.400,0.529 C8.564,0.174 7.687,-0.005 6.770,-0.005 C5.853,-0.005 4.977,0.174 4.140,0.529 C3.304,0.885 2.582,1.366 1.976,1.971 C1.371,2.577 0.889,3.299 0.534,4.137 C0.178,4.971 0.000,5.848 0.000,6.765 C0.000,7.682 0.178,8.558 0.534,9.394 C0.889,10.232 1.371,10.952 1.976,11.558 C2.582,12.164 3.304,12.646 4.140,13.002 C4.977,13.356 5.853,13.534 6.770,13.534 C8.180,13.534 9.460,13.137 10.607,12.342 L13.905,15.630 C14.136,15.875 14.424,15.996 14.770,15.996 C15.104,15.996 15.393,15.875 15.636,15.630 C15.880,15.387 16.001,15.099 16.001,14.766 C16.001,14.426 15.883,14.138 15.646,13.900 L15.646,13.900 ZM9.814,9.808 C8.970,10.651 7.956,11.072 6.770,11.072 C5.584,11.072 4.570,10.651 3.727,9.808 C2.883,8.966 2.462,7.951 2.462,6.765 C2.462,5.579 2.883,4.564 3.727,3.721 C4.570,2.879 5.584,2.457 6.770,2.457 C7.956,2.457 8.970,2.879 9.814,3.721 C10.657,4.564 11.079,5.579 11.079,6.765 C11.079,7.951 10.657,8.966 9.814,9.808 L9.814,9.808 Z" class="cls-1"/>
</svg>
