<svg xmlns="http://www.w3.org/2000/svg" xmlns:xlink="http://www.w3.org/1999/xlink" preserveAspectRatio="xMidYMid" width="9" height="9" viewBox="0 0 9 9">
  <defs>
    <style>
      .cls-1 {
        fill: #fff;
        fill-rule: evenodd;
      }
    </style>
  </defs>
  <path d="M8.977,3.386 C8.917,3.197 8.756,3.062 8.565,3.045 L5.967,2.799 L4.940,0.300 C4.864,0.117 4.692,-0.001 4.500,-0.001 C4.308,-0.001 4.135,0.117 4.060,0.300 L3.033,2.799 L0.435,3.045 C0.244,3.063 0.083,3.197 0.023,3.386 C-0.036,3.575 0.019,3.783 0.163,3.915 L2.127,5.705 L1.548,8.355 C1.505,8.551 1.578,8.752 1.734,8.869 C1.817,8.932 1.916,8.964 2.014,8.964 C2.099,8.964 2.184,8.940 2.260,8.893 L4.500,7.501 L6.740,8.893 C6.904,8.995 7.111,8.986 7.266,8.869 C7.422,8.752 7.494,8.551 7.452,8.355 L6.873,5.705 L8.837,3.915 C8.981,3.783 9.036,3.576 8.977,3.386 L8.977,3.386 Z" class="cls-1"/>
</svg>
