<svg xmlns="http://www.w3.org/2000/svg" xmlns:xlink="http://www.w3.org/1999/xlink" preserveAspectRatio="xMidYMid" width="16" height="15.94" viewBox="0 0 16 15.94">
  <defs>
    <style>
      .cls-1 {
        fill: #a9b6be;
        fill-rule: evenodd;
      }
    </style>
  </defs>
  <path d="M15.958,6.021 C15.853,5.684 15.565,5.446 15.227,5.414 L10.608,4.978 L8.783,0.535 C8.648,0.209 8.341,-0.001 8.000,-0.001 C7.659,-0.001 7.352,0.209 7.218,0.535 L5.392,4.978 L0.773,5.414 C0.434,5.446 0.148,5.684 0.041,6.021 C-0.064,6.358 0.033,6.727 0.289,6.960 L3.781,10.142 L2.752,14.855 C2.676,15.202 2.806,15.560 3.082,15.768 C3.231,15.880 3.406,15.937 3.581,15.937 C3.732,15.937 3.882,15.895 4.017,15.811 L8.000,13.336 L11.982,15.811 C12.274,15.992 12.641,15.976 12.917,15.768 C13.194,15.560 13.323,15.202 13.248,14.855 L12.219,10.142 L15.710,6.960 C15.966,6.727 16.063,6.358 15.958,6.021 L15.958,6.021 Z" class="cls-1"/>
</svg>
